inDegrees=yes
name=ik_lifting_orientations
DataType=double
version=3
OpenSimVersion=4.5-2024-01-10-34fd6af
endheader
time	pelvis_tilt	pelvis_list	pelvis_rotation	pelvis_tx	pelvis_ty	pelvis_tz	hip_flexion_r	hip_adduction_r	hip_rotation_r	knee_angle_r	knee_angle_r_beta	ankle_angle_r	subtalar_angle_r	mtp_angle_r	hip_flexion_l	hip_adduction_l	hip_rotation_l	knee_angle_l	knee_angle_l_beta	ankle_angle_l	subtalar_angle_l	mtp_angle_l	lumbar_extension	lumbar_bending	lumbar_rotation	arm_flex_r	arm_add_r	arm_rot_r	elbow_flex_r	pro_sup_r	wrist_flex_r	wrist_dev_r	arm_flex_l	arm_add_l	arm_rot_l	elbow_flex_l	pro_sup_l	wrist_flex_l	wrist_dev_l
0.02	0.0008932366034513896	-0.000976039287018862	-89.92672535286826	0	0.9400000003403366	0	44.24385364277897	-11.79484421038501	0	59.25484555038047	1.034192152614851	-5.777935219385185	0	0	44.24385364277897	-11.79484421038501	0	59.25484555038047	1.034192152614851	-5.777935219385185	0	0	0.0003368175293675404	-0.005031415093598402	0.006160212624153874	-0.1914854931878559	-0.04113112596498185	-0.0114483250502849	0.3919672236471177	-8.452875346400289	0	0	0	-8.838378126950508	0	79.13823771766852	8.452665132147295	0	0
0.03	0.003151662285274076	0.2501439801229721	-89.9301653837483	0	0.9400000003403366	0	44.24399189581347	-11.79370458654189	0	59.25495321443823	1.034194031707145	-5.777292818330662	0	0	44.24399189581347	-11.79370458654189	0	59.25495321443823	1.034194031707145	-5.777292818330662	0	0	0.2362837398695875	-0.0005197784126997519	0.002388809194895095	-0.2483192568897909	-0.09684827895407309	0.02632055105496267	0.508610456778652	-8.451788158926295	0	0	0	-8.8389594544545	0	79.13747894228443	8.45157794466529	0	0
0.04	0.002640407049334496	-0.1883113130758286	-89.91966902019081	0	0.9400000003403366	0	44.24419497091495	-11.79205008083487	0	59.25511276986337	1.034196816474653	-5.776362357041871	0	0	44.24419497091495	-11.79205008083487	0	59.25511276986337	1.034196816474653	-5.776362357041871	0	0	-0.1897651657438888	-0.0006146599902486472	-0.00926898861747456	-0.2984566673157004	-0.09436344624539462	0.1129656741679276	0.5452090480980215	-8.450185906779344	0	0	0	-8.839818813306609	0	79.13636446679163	8.449975692506543	0	0
0.05	-0.05052968308037602	-0.9908972835788697	-89.89341587805239	0	0.9400000003403366	0	44.24436024183456	-11.79071129467628	0	59.25524312792896	1.034199091652104	-5.775610423026676	0	0	44.24436024183456	-11.79071129467628	0	59.25524312792896	1.034199091652104	-5.775610423026676	0	0	-0.9683031359791382	0.05412291105528061	-0.03780251994054974	-0.3416606581156745	-0.1253502597645646	0.1099537192981481	0.5723729131567442	-8.448879966908331	0	0	0	-8.840520193655554	0	79.13545748449117	8.4486697526259	0	0
0.06	-0.05472628537386932	-1.128482274222369	-89.89532905236197	0	0.9400000003403366	0	44.27585413414672	-11.5611825123559	0	59.27980800486305	1.034627829634951	-5.652540226586091	0	0	44.27585413414672	-11.5611825123559	0	59.27980800486305	1.034627829634951	-5.652540226586091	0	0	-1.125310448563561	0.06300400627739919	-0.03694347298326058	-0.5705753684625882	-0.2020470140788775	0.1407532770419224	1.053126484988028	-8.198077883835523	0	0	0	-8.975679022161987	0	78.96268334718073	8.197867667707053	0	0
0.07000000000000001	-0.1152013623338734	-1.075521561559486	-89.89892018104798	0	0.9400000003403366	0	44.28779789247901	-11.48232428680599	0	59.28921451719869	1.034792004246337	-5.611707677781565	0	0	44.28779789247901	-11.48232428680599	0	59.28921451719869	1.034792004246337	-5.611707677781565	0	0	-1.079630916178727	0.1168879865340824	-0.02867464962916498	-0.3877631054253345	-0.1549485997499474	0.1767562562097809	0.5729796256965553	-8.10172227341809	0	0	0	-9.028075947822812	0	78.89718267936601	8.101512056581479	0	0
0.08	-0.1197691642315955	-1.003464605289977	-89.89702089361407	0	0.9400000003403366	0	44.30714796414409	-11.36019473300359	0	59.30452036737344	1.035059141726704	-5.549549060929266	0	0	44.30714796414409	-11.36019473300359	0	59.30452036737344	1.035059141726704	-5.549549060929266	0	0	-1.009006973352839	0.1206459435649949	-0.03241352387403824	-0.4443478258349535	-0.1630589217358911	0.1636255934043705	0.6609065907308452	-7.944727431259532	0	0	0	-9.113782726156002	0	78.79108002836482	7.944517213269855	0	0
0.09	-0.1744272755404856	-1.128636707671345	-89.8879386024565	0	0.9400000003403366	0	44.30724069995772	-11.35956399249948	0	59.30459401527691	1.035060427125106	-5.549217540295278	0	0	44.30724069995772	-11.35956399249948	0	59.30459401527691	1.035060427125106	-5.549217540295278	0	0	-1.09310376124995	0.1715709982940093	-0.03965880324644104	-0.4279795700767559	-0.2328272577166049	0.2073720111711547	0.520403222994572	-7.943979824230979	0	0	0	-9.114189487550849	0	78.79057140835874	7.943769606235803	0	0
0.1	-0.1164358214726028	-1.566209834957929	-89.90003584865983	0	0.9400000003403366	0	44.30740506959167	-11.35846394363306	0	59.30472618825664	1.035062733978785	-5.548641186686926	0	0	44.30740506959167	-11.35846394363306	0	59.30472618825664	1.035062733978785	-5.548641186686926	0	0	-1.563778885538164	0.1201123577076855	-0.03045436639234868	-0.3744879075062658	-0.2382520872151348	0.2456772659599245	0.5163726758261431	-7.942648527462122	0	0	0	-9.114916907129667	0	78.78966996432764	7.942438309457177	0	0
